<svg xmlns="http://www.w3.org/2000/svg" version="1.1" xmlns:xlink="http://www.w3.org/1999/xlink" xmlns:svgjs="http://svgjs.dev/svgjs" width="1000" height="623" viewBox="0 0 1000 623"><g transform="matrix(1,0,0,1,-0.6060606060605664,0.2522267206477409)"><svg viewBox="0 0 396 247" data-background-color="#ffffff" preserveAspectRatio="xMidYMid meet" height="623" width="1000" xmlns="http://www.w3.org/2000/svg" xmlns:xlink="http://www.w3.org/1999/xlink"><g id="tight-bounds" transform="matrix(1,0,0,1,0.2400000000000091,-0.09999999999999432)"><svg viewBox="0 0 395.52 247.2" height="247.2" width="395.52"><g><svg></svg></g><g><svg viewBox="0 0 395.52 247.2" height="247.2" width="395.52"><g transform="matrix(1,0,0,1,75.54432,102.33434810178505)"><svg viewBox="0 0 244.43135999999998 42.531303796429874" height="42.531303796429874" width="244.43135999999998"><g><svg viewBox="0 0 292.9694760866448 50.97698507475468" height="42.531303796429874" width="244.43135999999998"><g transform="matrix(1,0,0,1,48.538116086644834,7.045299673862623)"><svg viewBox="0 0 244.43135999999998 36.886385727029435" height="36.886385727029435" width="244.43135999999998"><g id="textblocktransform"><svg viewBox="0 0 244.43135999999998 36.886385727029435" height="36.886385727029435" width="244.43135999999998" id="textblock"><g><svg viewBox="0 0 244.43135999999998 36.886385727029435" height="36.886385727029435" width="244.43135999999998"><g transform="matrix(1,0,0,1,0,0)"><svg width="244.43135999999998" viewBox="-4.699999809265137 -39.04999923706055 336.2799987792969 50.75" height="36.886385727029435" data-palette-color="#50a060"><path d="M-2.75 11.7L-2.75 11.7Q-3.6 11.7-4.15 11.18-4.7 10.65-4.7 9.75L-4.7 9.75Q-4.7 8.9-4.15 8.35-3.6 7.8-2.75 7.8L-2.75 7.8Q-0.45 7.8 1.3 6.8 3.05 5.8 4.08 4.05 5.1 2.3 5.1 0L5.1 0 5.1-25.4Q5.1-26.3 5.63-26.83 6.15-27.35 7-27.35L7-27.35Q7.85-27.35 8.4-26.83 8.95-26.3 8.95-25.4L8.95-25.4 8.95 0Q8.95 3.4 7.45 6.05 5.95 8.7 3.3 10.2 0.65 11.7-2.75 11.7ZM6.95-32.55L6.95-32.55Q5.85-32.55 5.05-33.35 4.25-34.15 4.25-35.3L4.25-35.3Q4.25-36.55 5.08-37.27 5.9-38 7-38L7-38Q8.05-38 8.88-37.27 9.7-36.55 9.7-35.3L9.7-35.3Q9.7-34.15 8.9-33.35 8.1-32.55 6.95-32.55ZM29.2 0.25L29.2 0.25Q25.2 0.25 22.05-1.55 18.9-3.35 17.1-6.5 15.3-9.65 15.3-13.65L15.3-13.65Q15.3-17.7 17.1-20.85 18.9-24 22.05-25.8 25.2-27.6 29.2-27.6L29.2-27.6Q33.2-27.6 36.32-25.8 39.45-24 41.25-20.85 43.05-17.7 43.1-13.65L43.1-13.65Q43.1-9.65 41.27-6.5 39.45-3.35 36.32-1.55 33.2 0.25 29.2 0.25ZM29.2-3.25L29.2-3.25Q32.1-3.25 34.4-4.6 36.7-5.95 38-8.3 39.3-10.65 39.3-13.65L39.3-13.65Q39.3-16.65 38-19.03 36.7-21.4 34.4-22.75 32.1-24.1 29.2-24.1L29.2-24.1Q26.3-24.1 24-22.75 21.7-21.4 20.37-19.03 19.05-16.65 19.05-13.65L19.05-13.65Q19.05-10.65 20.37-8.3 21.7-5.95 24-4.6 26.3-3.25 29.2-3.25ZM74.05 0L74.05 0Q73.2 0 72.65-0.55 72.09-1.1 72.09-1.9L72.09-1.9 72.09-14.9Q72.09-18 70.92-20 69.75-22 67.72-23 65.7-24 63.15-24L63.15-24Q60.7-24 58.72-23.05 56.75-22.1 55.6-20.45 54.45-18.8 54.45-16.7L54.45-16.7 51.7-16.7Q51.8-19.85 53.4-22.33 55-24.8 57.65-26.23 60.3-27.65 63.55-27.65L63.55-27.65Q67.09-27.65 69.9-26.18 72.7-24.7 74.32-21.85 75.95-19 75.95-14.9L75.95-14.9 75.95-1.9Q75.95-1.1 75.4-0.55 74.84 0 74.05 0ZM52.55 0L52.55 0Q51.65 0 51.12-0.53 50.6-1.05 50.6-1.9L50.6-1.9 50.6-25.4Q50.6-26.3 51.12-26.83 51.65-27.35 52.55-27.35L52.55-27.35Q53.4-27.35 53.92-26.83 54.45-26.3 54.45-25.4L54.45-25.4 54.45-1.9Q54.45-1.05 53.92-0.53 53.4 0 52.55 0ZM52.55-11.15L52.55-11.15Q51.65-11.15 51.12-11.7 50.6-12.25 50.6-13.1L50.6-13.1 50.6-37.1Q50.6-38 51.12-38.53 51.65-39.05 52.55-39.05L52.55-39.05Q53.4-39.05 53.92-38.53 54.45-38 54.45-37.1L54.45-37.1 54.45-13.1Q54.45-12.25 53.92-11.7 53.4-11.15 52.55-11.15ZM107.89 0L107.89 0Q107.04 0 106.49-0.55 105.94-1.1 105.94-1.9L105.94-1.9 105.94-14.9Q105.94-18 104.77-20 103.59-22 101.57-23 99.54-24 96.99-24L96.99-24Q94.54-24 92.57-23.05 90.59-22.1 89.44-20.45 88.29-18.8 88.29-16.7L88.29-16.7 85.54-16.7Q85.64-19.85 87.24-22.33 88.84-24.8 91.49-26.23 94.14-27.65 97.39-27.65L97.39-27.65Q100.94-27.65 103.74-26.18 106.54-24.7 108.17-21.85 109.79-19 109.79-14.9L109.79-14.9 109.79-1.9Q109.79-1.1 109.24-0.55 108.69 0 107.89 0ZM86.39 0L86.39 0Q85.49 0 84.97-0.53 84.44-1.05 84.44-1.9L84.44-1.9 84.44-25.4Q84.44-26.3 84.97-26.83 85.49-27.35 86.39-27.35L86.39-27.35Q87.24-27.35 87.77-26.83 88.29-26.3 88.29-25.4L88.29-25.4 88.29-1.9Q88.29-1.05 87.77-0.53 87.24 0 86.39 0ZM138.54-24.6L121.44-9.15 119.09-11.7 136.19-27.15Q136.79-27.7 137.44-27.68 138.09-27.65 138.64-27.05L138.64-27.05Q139.19-26.45 139.17-25.78 139.14-25.1 138.54-24.6L138.54-24.6ZM120.19 0L120.19 0Q119.34 0 118.82-0.53 118.29-1.05 118.29-1.9L118.29-1.9 118.29-37.15Q118.29-38 118.82-38.53 119.34-39.05 120.19-39.05L120.19-39.05Q121.04-39.05 121.57-38.53 122.09-38 122.09-37.15L122.09-37.15 122.09-1.9Q122.09-1.05 121.57-0.53 121.04 0 120.19 0ZM138.69-0.25L138.69-0.25Q138.04 0.3 137.34 0.23 136.64 0.15 136.14-0.5L136.14-0.5 124.99-14.2 127.69-16.6 138.94-2.75Q139.44-2.15 139.39-1.48 139.34-0.8 138.69-0.25ZM156.44 0.25L156.44 0.25Q152.59 0.25 149.54-1.58 146.49-3.4 144.71-6.55 142.94-9.7 142.94-13.65L142.94-13.65Q142.94-17.65 144.76-20.8 146.59-23.95 149.74-25.78 152.89-27.6 156.84-27.6L156.84-27.6Q160.79-27.6 163.91-25.78 167.04-23.95 168.86-20.8 170.69-17.65 170.74-13.65L170.74-13.65 169.19-12.45Q169.19-8.85 167.51-5.98 165.84-3.1 162.96-1.43 160.09 0.25 156.44 0.25ZM156.84-3.25L156.84-3.25Q159.74-3.25 162.01-4.6 164.29-5.95 165.61-8.33 166.94-10.7 166.94-13.65L166.94-13.65Q166.94-16.65 165.61-19 164.29-21.35 162.01-22.73 159.74-24.1 156.84-24.1L156.84-24.1Q153.99-24.1 151.69-22.73 149.39-21.35 148.04-19 146.69-16.65 146.69-13.65L146.69-13.65Q146.69-10.7 148.04-8.33 149.39-5.95 151.69-4.6 153.99-3.25 156.84-3.25ZM168.79 0L168.79 0Q167.94 0 167.39-0.53 166.84-1.05 166.84-1.9L166.84-1.9 166.84-10.45 167.79-14.4 170.74-13.65 170.74-1.9Q170.74-1.05 170.19-0.53 169.64 0 168.79 0ZM201.69 0L201.69 0Q200.84 0 200.29-0.55 199.74-1.1 199.74-1.9L199.74-1.9 199.74-14.9Q199.74-18 198.56-20 197.39-22 195.36-23 193.34-24 190.79-24L190.79-24Q188.34-24 186.36-23.05 184.39-22.1 183.24-20.45 182.09-18.8 182.09-16.7L182.09-16.7 179.34-16.7Q179.44-19.85 181.04-22.33 182.64-24.8 185.29-26.23 187.94-27.65 191.19-27.65L191.19-27.65Q194.74-27.65 197.54-26.18 200.34-24.7 201.96-21.85 203.59-19 203.59-14.9L203.59-14.9 203.59-1.9Q203.59-1.1 203.04-0.55 202.49 0 201.69 0ZM180.19 0L180.19 0Q179.29 0 178.76-0.53 178.24-1.05 178.24-1.9L178.24-1.9 178.24-25.4Q178.24-26.3 178.76-26.83 179.29-27.35 180.19-27.35L180.19-27.35Q181.04-27.35 181.56-26.83 182.09-26.3 182.09-25.4L182.09-25.4 182.09-1.9Q182.09-1.05 181.56-0.53 181.04 0 180.19 0ZM232.33-24.6L215.23-9.15 212.88-11.7 229.98-27.15Q230.58-27.7 231.23-27.68 231.88-27.65 232.43-27.05L232.43-27.05Q232.98-26.45 232.96-25.78 232.93-25.1 232.33-24.6L232.33-24.6ZM213.98 0L213.98 0Q213.13 0 212.61-0.53 212.08-1.05 212.08-1.9L212.08-1.9 212.08-37.15Q212.08-38 212.61-38.53 213.13-39.05 213.98-39.05L213.98-39.05Q214.83-39.05 215.36-38.53 215.88-38 215.88-37.15L215.88-37.15 215.88-1.9Q215.88-1.05 215.36-0.53 214.83 0 213.98 0ZM232.48-0.25L232.48-0.25Q231.83 0.3 231.13 0.23 230.43 0.15 229.93-0.5L229.93-0.5 218.78-14.2 221.48-16.6 232.73-2.75Q233.23-2.15 233.18-1.48 233.13-0.8 232.48-0.25ZM250.63 0.25L250.63 0.25Q246.63 0.25 243.48-1.55 240.33-3.35 238.53-6.5 236.73-9.65 236.73-13.65L236.73-13.65Q236.73-17.7 238.53-20.85 240.33-24 243.48-25.8 246.63-27.6 250.63-27.6L250.63-27.6Q254.63-27.6 257.75-25.8 260.88-24 262.68-20.85 264.48-17.7 264.53-13.65L264.53-13.65Q264.53-9.65 262.7-6.5 260.88-3.35 257.75-1.55 254.63 0.25 250.63 0.25ZM250.63-3.25L250.63-3.25Q253.53-3.25 255.83-4.6 258.13-5.95 259.43-8.3 260.73-10.65 260.73-13.65L260.73-13.65Q260.73-16.65 259.43-19.03 258.13-21.4 255.83-22.75 253.53-24.1 250.63-24.1L250.63-24.1Q247.73-24.1 245.43-22.75 243.13-21.4 241.81-19.03 240.48-16.65 240.48-13.65L240.48-13.65Q240.48-10.65 241.81-8.3 243.13-5.95 245.43-4.6 247.73-3.25 250.63-3.25ZM284.48 0.25L284.48 0.25Q280.53 0.25 277.38-1.58 274.23-3.4 272.4-6.55 270.58-9.7 270.58-13.7L270.58-13.7Q270.58-17.65 272.35-20.8 274.13-23.95 277.18-25.78 280.23-27.6 284.08-27.6L284.08-27.6Q287.43-27.6 290.13-26.18 292.83-24.75 294.48-22.4L294.48-22.4 294.48-37.1Q294.48-38 295.03-38.53 295.58-39.05 296.43-39.05L296.43-39.05Q297.28-39.05 297.83-38.53 298.38-38 298.38-37.1L298.38-37.1 298.38-13.5Q298.28-9.6 296.45-6.48 294.63-3.35 291.5-1.55 288.38 0.25 284.48 0.25ZM284.48-3.25L284.48-3.25Q287.38-3.25 289.65-4.63 291.93-6 293.25-8.35 294.58-10.7 294.58-13.7L294.58-13.7Q294.58-16.65 293.25-19.03 291.93-21.4 289.65-22.75 287.38-24.1 284.48-24.1L284.48-24.1Q281.63-24.1 279.33-22.75 277.03-21.4 275.68-19.03 274.33-16.65 274.33-13.7L274.33-13.7Q274.33-10.7 275.68-8.35 277.03-6 279.33-4.63 281.63-3.25 284.48-3.25ZM319.78 0.25L319.78 0.25Q315.73 0.25 312.6-1.53 309.48-3.3 307.7-6.45 305.93-9.6 305.93-13.65L305.93-13.65Q305.93-17.75 307.6-20.88 309.28-24 312.23-25.8 315.18-27.6 319.03-27.6L319.03-27.6Q322.83-27.6 325.65-25.88 328.48-24.15 330.03-21.1 331.58-18.05 331.58-14.15L331.58-14.15Q331.58-13.35 331.08-12.88 330.58-12.4 329.78-12.4L329.78-12.4 308.53-12.4 308.53-15.6 330.18-15.6 328.03-14.05Q328.08-16.95 326.98-19.25 325.88-21.55 323.85-22.85 321.83-24.15 319.03-24.15L319.03-24.15Q316.18-24.15 314.03-22.8 311.88-21.45 310.7-19.07 309.53-16.7 309.53-13.65L309.53-13.65Q309.53-10.6 310.85-8.25 312.18-5.9 314.48-4.55 316.78-3.2 319.78-3.2L319.78-3.2Q321.58-3.2 323.4-3.83 325.23-4.45 326.33-5.4L326.33-5.4Q326.88-5.85 327.58-5.88 328.28-5.9 328.78-5.5L328.78-5.5Q329.43-4.9 329.45-4.2 329.48-3.5 328.88-3L328.88-3Q327.23-1.6 324.68-0.68 322.13 0.25 319.78 0.25Z" opacity="1" transform="matrix(1,0,0,1,0,0)" fill="#50a060" class="wordmark-text-0" data-fill-palette-color="primary" id="text-0"></path></svg></g></svg></g></svg></g></svg></g><g><svg viewBox="0 0 39.83012568975063 50.97698507475468" height="50.97698507475468" width="39.83012568975063"><g><svg xmlns="http://www.w3.org/2000/svg" xmlns:xlink="http://www.w3.org/1999/xlink" version="1.1" x="0" y="0" viewBox="14.820202827453613 4.999999046325684 70.39832305908203 90.0999984741211" enable-background="new 0 0 100 100" xml:space="preserve" height="50.97698507475468" width="39.83012568975063" class="icon-icon-0" data-fill-palette-color="accent" id="icon-0"><g fill="#50a060" data-fill-palette-color="accent"><rect x="43.5" y="72.2" width="12.9" height="2.1" fill="#50a060" data-fill-palette-color="accent"></rect><rect x="47.5" y="77.7" width="5" height="1.3" fill="#50a060" data-fill-palette-color="accent"></rect><path d="M78.4 47.7L72 45.2l-1.1-0.4-0.3-1.1L69.1 37c-0.1-0.3-0.3-0.4-0.5-0.5-0.1 0-0.1 0-0.2 0-0.2 0-0.4 0.1-0.5 0.2L63.6 42l-0.7 0.9-1.2-0.1-6.8-0.6c0 0-0.1 0-0.1 0-0.2 0-0.4 0.1-0.5 0.3-0.1 0.2-0.1 0.5 0 0.7l3.7 5.8 0.6 1-0.5 1.1-2.7 6.3c-0.1 0.2-0.1 0.5 0.1 0.7 0.1 0.1 0.3 0.2 0.4 0.2 0.1 0 0.1 0 0.2 0 0 0 0.1 0 0.1 0l6.6-1.7 1.1-0.3 0.9 0.8 5.2 4.5c0.1 0.1 0.2 0.1 0.3 0.1 0.1 0 0.1 0 0.2 0 0.1 0 0.2 0 0.2-0.1 0.2-0.1 0.4-0.3 0.4-0.6l0.4-6.8 0.1-1.2 1-0.6 5.9-3.5c0.2-0.1 0.3-0.4 0.3-0.6C78.8 48 78.6 47.8 78.4 47.7z" fill="#50a060" data-fill-palette-color="accent"></path><path d="M84.3 44.1c-0.9-1.1-2.4-1.7-4.3-1.7 0 0-0.1 0-0.1 0 0.1-0.4 0.2-0.8 0.4-1.3 2-6.9 4.9-17.2-7.7-26.9C61.5 5.9 53.8 5 51 5c-0.6 0-1 0-1.1 0.1-1.3 0.1-15.5 0.8-22.2 8.1-1 1.1-2.2 2.1-3.2 3.1-5.4 4.9-10.4 9.5-5.7 26.3-1.3 0.2-2.3 0.7-3 1.6-0.6 0.7-1.2 2-0.9 3.9 0.8 4.4 1.8 8.2 2.9 11 0.7 1.6 1.3 2.9 2.1 3.8 0.3 0.4 0.7 0.8 1 1.1-0.4 6.2 1.9 7.4 2.8 7.6 0.3 0.1 0.6 0.1 0.9 0.1 0 0 0 0 0 0 0.1 0 0.2 0 0.3 0 1.7 5.6 3.7 9.6 6.2 11.9 8.5 8 12.7 11.5 16.7 11.5h4.4c3.3 0 7.8-3.1 16.7-11.5 2.5-2.3 4.6-6.3 6.2-11.8 0.1 0 0.2 0 0.3 0 2.3 0 4.1-1.4 4.3-3.4 0.1-0.9 0-2.5-0.2-4.7 1.4-1.4 2.3-3.6 2.7-4.5 1.1-2.8 2.1-6.6 2.9-11C85.5 46.1 84.8 44.8 84.3 44.1zM78.9 51.1L74 54l-0.4 6.8c0 0.1 0 0.2 0 0.4 0 0 0 0.1 0 0.1 0 0.1 0 0.2-0.1 0.2 0 0 0 0.1 0 0.1 0 0.1-0.1 0.2-0.1 0.3 0 0 0 0.1-0.1 0.1 0 0.1-0.1 0.1-0.1 0.2 0 0-0.1 0.1-0.1 0.1 0 0-0.1 0.1-0.1 0.1 0 0-0.1 0.1-0.1 0.1-0.1 0.1-0.1 0.1-0.2 0.2 0 0 0 0 0 0v0c-0.2 0.2-0.5 0.3-0.7 0.4-0.4 0.2-0.7 0.2-1.1 0.2-0.2 0-0.4 0-0.7-0.1-0.4-0.1-0.9-0.3-1.2-0.6l-5.2-4.5L57 60.1c-0.2 0.1-0.5 0.1-0.7 0.1-0.2 0-0.4 0-0.7-0.1-0.6-0.1-1.1-0.5-1.5-0.9-0.7-0.8-0.9-2-0.5-3l2.7-6.3L55.7 49l0 0-0.1-0.1-3-4.7c-0.6-0.9-0.6-2.1 0-3.1 0.5-0.9 1.5-1.4 2.5-1.4 0.1 0 0.2 0 0.2 0l6.8 0.6 4.3-5.3c0.6-0.7 1.4-1.1 2.2-1.1 0.2 0 0.4 0 0.7 0.1 1.1 0.3 1.9 1.1 2.2 2.2l1.6 6.7 6.4 2.5c1 0.4 1.7 1.4 1.8 2.5 0.1 1.1-0.4 2.2-1.4 2.7L78.9 51.1 78.9 51.1zM27.8 63.5c-0.1 0-0.2 0-0.2-0.1-0.1 0-0.2-0.1-0.2-0.1-1-0.4-1.7-1.4-1.8-2.5L25.2 54l-3.9-2.3v0l-2-1.2c-0.9-0.6-1.5-1.6-1.4-2.7 0.1-1.1 0.8-2 1.8-2.5l6.4-2.5 1.6-6.7c0.3-1.1 1.1-1.9 2.2-2.2 0.2-0.1 0.4-0.1 0.7-0.1 0.9 0 1.7 0.4 2.2 1.1l4.3 5.3 6.8-0.6c0.1 0 0.2 0 0.2 0 1 0 2 0.5 2.5 1.4 0.6 0.9 0.6 2.1 0 3.1l-3.7 5.8 2.7 6.3c0.4 1 0.2 2.2-0.5 3-0.4 0.5-0.9 0.8-1.5 0.9-0.2 0-0.4 0.1-0.7 0.1-0.2 0-0.5 0-0.7-0.1l-6.6-1.7-5.2 4.5c-0.4 0.3-0.8 0.5-1.2 0.6-0.2 0.1-0.4 0.1-0.7 0.1C28.3 63.6 28 63.6 27.8 63.5L27.8 63.5zM25.6 30c3.7-9.3 8.9-14.3 12-14.6 1.1-0.1 2.9 0.1 5.1 0.4 3.2 0.4 7.2 0.8 11.9 0.8 3.6 0 7-0.3 10.3-0.8 3.3 3.5 8.1 9.3 8.7 11.8 0.3 1.2 0.3 5.3 0.2 10.6l-0.6-2.5c-0.4-1.8-1.8-3.2-3.6-3.6C69.4 32 69 32 68.7 32c-1.5 0-2.8 0.6-3.7 1.8l-3.7 4.5-5.8-0.5c-0.1 0-0.3 0-0.4 0-1.7 0-3.3 0.9-4.1 2.3-1 1.6-0.9 3.6 0.1 5.1l1.4 2.2c-0.8-0.2-1.6-0.2-2.4-0.2-1.2 0-2.3 0.2-3.2 0.3l1.5-2.3c1-1.6 1-3.5 0.1-5.1-0.9-1.4-2.5-2.3-4.1-2.3-0.1 0-0.3 0-0.4 0L38 38.2l-3.7-4.5C33.3 32.6 32 32 30.5 32c-0.4 0-0.7 0-1.1 0.1-1.8 0.4-3.2 1.8-3.6 3.6l-1.2 5C24.4 35.9 24.7 32.2 25.6 30zM21.8 61.6C20.4 60 19 56.4 18 52c0.1 0.1 0.2 0.1 0.3 0.2l3.5 2.1C22.4 58.2 22.1 60.5 21.8 61.6zM67.4 81.8c-8.2 7.7-12.6 10.9-15.1 10.9s-1.4 0-4.4 0-6.9-3.1-15.1-10.9c-2.5-2.3-4.3-6.4-5.6-11 1-0.8 1.5-1.8 1.6-1.9l0.3-0.5-0.1-0.6c0 0-0.2-0.8-0.5-2.2 0.1 0 0.1 0 0.2 0 0.4 0 0.7 0 1.1-0.1 0.8-0.2 1.5-0.5 2.1-1.1l4.4-3.8 5.6 1.5c0.4 0.1 0.8 0.2 1.2 0.2 0.4 0 0.7 0 1.1-0.1 1-0.2 1.9-0.8 2.6-1.5 1.2-1.4 1.5-3.3 0.8-5.1l-2.1-5.1c0.6-0.2 2.6-0.9 4.8-0.9 1.6 0 2.9 0.3 3.9 1l-2.1 4.9c-0.7 1.7-0.4 3.6 0.8 5.1 0.7 0.8 1.6 1.3 2.6 1.5 0.4 0.1 0.7 0.1 1.1 0.1 0.4 0 0.8-0.1 1.2-0.2l5.6-1.5 4.4 3.8c0.6 0.5 1.3 0.9 2.1 1.1 0.4 0.1 0.7 0.1 1.1 0.1 0.6 0 1.1-0.1 1.6-0.3-0.1 1.1-0.3 1.9-0.4 2.2-0.4 0.9-0.4 1.9 0.2 2.7 0.2 0.3 0.5 0.6 0.8 0.8C71.6 75.5 69.8 79.5 67.4 81.8zM79.3 59.9c-0.2-2.1-0.3-4.4-0.4-6.6l1.9-1.2c0.5-0.3 1-0.7 1.3-1.2C81.4 54.6 80.4 57.8 79.3 59.9z" fill="#50a060" data-fill-palette-color="accent"></path><path d="M28.8 61.7c0.1 0 0.2-0.1 0.3-0.1l5.2-4.5 0.9-0.8 1.1 0.3 6.6 1.7c0 0 0.1 0 0.1 0 0.1 0 0.1 0 0.2 0 0.1 0 0.2-0.1 0.4-0.2 0.2-0.2 0.2-0.5 0.1-0.7l-2.7-6.3L40.6 50l0.6-1 3.7-5.8c0.1-0.2 0.1-0.5 0-0.7-0.1-0.2-0.3-0.3-0.5-0.3 0 0-0.1 0-0.1 0l-6.8 0.6-1.2 0.1L35.6 42l-4.3-5.3c-0.1-0.1-0.3-0.2-0.5-0.2-0.1 0-0.1 0-0.2 0-0.3 0.1-0.4 0.3-0.5 0.5l-1.6 6.7-0.3 1.1-1.1 0.4-6.4 2.5c-0.2 0.1-0.4 0.3-0.4 0.6 0 0.3 0.1 0.5 0.3 0.6l5.9 3.5 1 0.6 0.1 1.2 0.4 6.8c0 0.3 0.2 0.5 0.4 0.6 0.1 0 0.2 0 0.2 0.1C28.7 61.7 28.8 61.7 28.8 61.7z" fill="#50a060" data-fill-palette-color="accent"></path></g></svg></g></svg></g></svg></g></svg></g><g><path d="M0 123.6c0-68.262 55.338-123.6 123.6-123.6 59.734 0 109.57 42.374 121.091 98.702h-1.417c-11.499-55.556-60.71-97.314-119.674-97.314-67.496 0-122.212 54.716-122.212 122.212 0 67.496 54.716 122.212 122.212 122.212 58.964 0 108.175-41.758 119.674-97.314h1.417c-11.521 56.328-61.358 98.702-121.091 98.702-68.262 0-123.6-55.338-123.6-123.6z" fill="#50a060" stroke="transparent" data-fill-palette-color="tertiary"></path></g></svg></g><defs></defs></svg><rect width="395.52" height="247.2" fill="none" stroke="none" visibility="hidden"></rect></g></svg></g></svg>